<?xml version="1.0" encoding="utf-8"?>
<!-- Generator: Adobe Illustrator 13.0.0, SVG Export Plug-In  -->
<!DOCTYPE svg [
	<!ENTITY ns_flows "http://ns.adobe.com/Flows/1.0/">
]>
<svg version="1.2" baseProfile="tiny"
	 xmlns="http://www.w3.org/2000/svg" xmlns:xlink="http://www.w3.org/1999/xlink" xmlns:a="http://ns.adobe.com/AdobeSVGViewerExtensions/3.0/"
	 x="0px" y="0px" width="110px" height="22px" viewBox="-0.618 -1 110 22" xml:space="preserve">
<defs>
</defs>
<path fill="#357EBD" d="M10.652,11.357c0,1.624-0.459,2.885-1.378,3.784c-0.921,0.897-2.203,1.347-3.847,1.347H0V20h5.34
	c1.47,0,2.752-0.205,3.847-0.609c1.093-0.404,2.011-0.985,2.751-1.744c0.743-0.753,1.298-1.66,1.668-2.726
	c0.371-1.063,0.557-2.255,0.557-3.571V0h-3.512V11.357z M35.675,9.927v0.088c0,6.657,3.038,9.985,9.114,9.985h7.256v-3.512H43.89
	c-3.136,0-4.703-2.154-4.703-6.459c0-2.26,0.392-3.911,1.176-4.953c0.784-1.042,1.968-1.564,3.557-1.564h8.155V0h-7.256
	C38.742,0,35.695,3.309,35.675,9.927z M27.228,0.639C26.548,0.212,25.746,0,24.818,0c-0.928,0-1.732,0.212-2.409,0.639
	c-0.678,0.425-1.172,1.075-1.48,1.944L14.717,20h3.714l5.632-15.908c0.136-0.367,0.387-0.552,0.754-0.552
	c0.367,0,0.619,0.185,0.754,0.552L31.204,20h3.716L28.707,2.583C28.397,1.714,27.904,1.063,27.228,0.639z M78.633,0.61
	c-1.099,0.406-2.025,0.983-2.771,1.728c-0.746,0.743-1.301,1.65-1.667,2.713c-0.369,1.064-0.554,2.263-0.554,3.6V20h3.513v-8.302
	h11.758V8.186H77.155c0.076-1.529,0.583-2.689,1.524-3.484c0.938-0.792,2.173-1.19,3.702-1.19h6.531V0h-6.415
	C81.025,0,79.739,0.203,78.633,0.61z M104.614,0l-4.933,8.012L94.716,0h-4.151l6.417,9.723L90.565,20h4.21l4.906-8.098L104.588,20
	h4.179l-6.444-10.277L108.767,0H104.614z M69.622,1.743c-0.517-0.543-1.169-0.969-1.967-1.279C66.861,0.155,65.913,0,64.807,0
	H54.803v3.512h10.538c0.309,0,0.597,0.064,0.868,0.188c0.273,0.126,0.508,0.296,0.713,0.508c0.205,0.213,0.369,0.46,0.495,0.74
	c0.124,0.281,0.188,0.577,0.188,0.886c0,0.657-0.224,1.214-0.671,1.67c-0.444,0.454-0.982,0.681-1.624,0.681h-4.208
	c-1.937,0-3.469,0.49-4.601,1.468c-1.133,0.977-1.699,2.432-1.699,4.367V20h3.514v-5.923c0-0.638,0.207-1.194,0.625-1.666
	c0.414-0.476,0.936-0.713,1.556-0.713h4.306c1.145,0,2.119-0.168,2.927-0.509c0.804-0.336,1.458-0.783,1.96-1.334
	c0.505-0.553,0.869-1.177,1.092-1.873c0.223-0.698,0.335-1.393,0.335-2.089c0-0.813-0.122-1.572-0.361-2.28
	C70.511,2.907,70.134,2.283,69.622,1.743z"/>
</svg>
